{
    "asset" : {
        "generator" : "Khronos glTF Blender I/O v1.3.48",
        "version" : "2.0"
    },
    "scene" : 0,
    "scenes" : [
        {
            "name" : "Scene",
            "nodes" : [
                0
            ]
        }
    ],
    "nodes" : [
        {
            "mesh" : 0,
            "name" : "Box002",
            "scale" : [
                0.0010000000474974513,
                0.0010000000474974513,
                0.0010000000474974513
            ],
            "translation" : [
                0,
                0.0020000010263174772,
                -0.017153708264231682
            ]
        }
    ],
    "materials" : [
        {
            "doubleSided" : true,
            "emissiveFactor" : [
                0,
                0,
                0
            ],
            "name" : "Material #60.002",
            "pbrMetallicRoughness" : {
                "baseColorFactor" : [
                    0.8716577887535095,
                    0.018645089119672775,
                    0.018645089119672775,
                    1
                ],
                "metallicFactor" : 0,
                "roughnessFactor" : 0.5527864098548889
            }
        },
        {
            "doubleSided" : true,
            "emissiveFactor" : [
                0,
                0,
                0
            ],
            "name" : "Material #48.002",
            "pbrMetallicRoughness" : {
                "baseColorFactor" : [
                    0.9465240836143494,
                    0.9465240836143494,
                    0.9465240836143494,
                    1
                ],
                "metallicFactor" : 0,
                "roughnessFactor" : 0.5527864098548889
            }
        },
        {
            "doubleSided" : true,
            "emissiveFactor" : [
                0,
                0,
                0
            ],
            "name" : "Material #62.002",
            "pbrMetallicRoughness" : {
                "baseColorFactor" : [
                    0.02481914311647415,
                    0.3529411852359772,
                    0.007549545727670193,
                    1
                ],
                "metallicFactor" : 0,
                "roughnessFactor" : 0.5527864098548889
            }
        },
        {
            "doubleSided" : true,
            "emissiveFactor" : [
                0,
                0,
                0
            ],
            "name" : "Material #47.002",
            "pbrMetallicRoughness" : {
                "baseColorFactor" : [
                    0,
                    0,
                    0,
                    1
                ],
                "metallicFactor" : 0,
                "roughnessFactor" : 0.5527864098548889
            }
        },
        {
            "doubleSided" : true,
            "emissiveFactor" : [
                0,
                0,
                0
            ],
            "name" : "Material #61.002",
            "pbrMetallicRoughness" : {
                "baseColorFactor" : [
                    0.1925133764743805,
                    0.056487735360860825,
                    0.006176895461976528,
                    1
                ],
                "metallicFactor" : 0,
                "roughnessFactor" : 0.5527864098548889
            }
        }
    ],
    "meshes" : [
        {
            "name" : "Mesh.002",
            "primitives" : [
                {
                    "attributes" : {
                        "POSITION" : 0,
                        "NORMAL" : 1,
                        "TEXCOORD_0" : 2,
                        "COLOR_0" : 3
                    },
                    "indices" : 4,
                    "material" : 0
                },
                {
                    "attributes" : {
                        "POSITION" : 5,
                        "NORMAL" : 6,
                        "TEXCOORD_0" : 7,
                        "COLOR_0" : 8
                    },
                    "indices" : 9,
                    "material" : 1
                },
                {
                    "attributes" : {
                        "POSITION" : 10,
                        "NORMAL" : 11,
                        "TEXCOORD_0" : 12,
                        "COLOR_0" : 13
                    },
                    "indices" : 14,
                    "material" : 2
                },
                {
                    "attributes" : {
                        "POSITION" : 15,
                        "NORMAL" : 16,
                        "TEXCOORD_0" : 17,
                        "COLOR_0" : 18
                    },
                    "indices" : 19,
                    "material" : 3
                },
                {
                    "attributes" : {
                        "POSITION" : 20,
                        "NORMAL" : 21,
                        "TEXCOORD_0" : 22,
                        "COLOR_0" : 23
                    },
                    "indices" : 24,
                    "material" : 4
                }
            ]
        }
    ],
    "accessors" : [
        {
            "bufferView" : 0,
            "componentType" : 5126,
            "count" : 3929,
            "max" : [
                47,
                377.603271484375,
                64.1537094116211
            ],
            "min" : [
                -47,
                -9.5367431640625e-07,
                -30.753604888916016
            ],
            "type" : "VEC3"
        },
        {
            "bufferView" : 1,
            "componentType" : 5126,
            "count" : 3929,
            "type" : "VEC3"
        },
        {
            "bufferView" : 2,
            "componentType" : 5126,
            "count" : 3929,
            "type" : "VEC2"
        },
        {
            "bufferView" : 3,
            "componentType" : 5126,
            "count" : 3929,
            "type" : "VEC4"
        },
        {
            "bufferView" : 4,
            "componentType" : 5123,
            "count" : 12216,
            "type" : "SCALAR"
        },
        {
            "bufferView" : 5,
            "componentType" : 5126,
            "count" : 3949,
            "max" : [
                50,
                283.08819580078125,
                67.1537094116211
            ],
            "min" : [
                -50,
                -2.0000009536743164,
                -32.846290588378906
            ],
            "type" : "VEC3"
        },
        {
            "bufferView" : 6,
            "componentType" : 5126,
            "count" : 3949,
            "type" : "VEC3"
        },
        {
            "bufferView" : 7,
            "componentType" : 5126,
            "count" : 3949,
            "type" : "VEC2"
        },
        {
            "bufferView" : 8,
            "componentType" : 5126,
            "count" : 3949,
            "type" : "VEC4"
        },
        {
            "bufferView" : 9,
            "componentType" : 5123,
            "count" : 8439,
            "type" : "SCALAR"
        },
        {
            "bufferView" : 10,
            "componentType" : 5126,
            "count" : 626,
            "max" : [
                40.01548385620117,
                372.7529296875,
                55.49983596801758
            ],
            "min" : [
                -39.98196792602539,
                88.48436737060547,
                -27.434368133544922
            ],
            "type" : "VEC3"
        },
        {
            "bufferView" : 11,
            "componentType" : 5126,
            "count" : 626,
            "type" : "VEC3"
        },
        {
            "bufferView" : 12,
            "componentType" : 5126,
            "count" : 626,
            "type" : "VEC2"
        },
        {
            "bufferView" : 13,
            "componentType" : 5126,
            "count" : 626,
            "type" : "VEC4"
        },
        {
            "bufferView" : 14,
            "componentType" : 5123,
            "count" : 1098,
            "type" : "SCALAR"
        },
        {
            "bufferView" : 15,
            "componentType" : 5126,
            "count" : 76,
            "max" : [
                47,
                199.76165771484375,
                64.1537094116211
            ],
            "min" : [
                -47,
                -9.5367431640625e-07,
                -29.84629249572754
            ],
            "type" : "VEC3"
        },
        {
            "bufferView" : 16,
            "componentType" : 5126,
            "count" : 76,
            "type" : "VEC3"
        },
        {
            "bufferView" : 17,
            "componentType" : 5126,
            "count" : 76,
            "type" : "VEC2"
        },
        {
            "bufferView" : 18,
            "componentType" : 5126,
            "count" : 76,
            "type" : "VEC4"
        },
        {
            "bufferView" : 19,
            "componentType" : 5123,
            "count" : 198,
            "type" : "SCALAR"
        },
        {
            "bufferView" : 20,
            "componentType" : 5126,
            "count" : 29,
            "max" : [
                10.132792472839355,
                39.11009979248047,
                52.69984436035156
            ],
            "min" : [
                -9.867207527160645,
                0.0001201629638671875,
                52.6998405456543
            ],
            "type" : "VEC3"
        },
        {
            "bufferView" : 21,
            "componentType" : 5126,
            "count" : 29,
            "type" : "VEC3"
        },
        {
            "bufferView" : 22,
            "componentType" : 5126,
            "count" : 29,
            "type" : "VEC2"
        },
        {
            "bufferView" : 23,
            "componentType" : 5126,
            "count" : 29,
            "type" : "VEC4"
        },
        {
            "bufferView" : 24,
            "componentType" : 5123,
            "count" : 81,
            "type" : "SCALAR"
        }
    ],
    "bufferViews" : [
        {
            "buffer" : 0,
            "byteLength" : 47148,
            "byteOffset" : 0
        },
        {
            "buffer" : 0,
            "byteLength" : 47148,
            "byteOffset" : 47148
        },
        {
            "buffer" : 0,
            "byteLength" : 31432,
            "byteOffset" : 94296
        },
        {
            "buffer" : 0,
            "byteLength" : 62864,
            "byteOffset" : 125728
        },
        {
            "buffer" : 0,
            "byteLength" : 24432,
            "byteOffset" : 188592
        },
        {
            "buffer" : 0,
            "byteLength" : 47388,
            "byteOffset" : 213024
        },
        {
            "buffer" : 0,
            "byteLength" : 47388,
            "byteOffset" : 260412
        },
        {
            "buffer" : 0,
            "byteLength" : 31592,
            "byteOffset" : 307800
        },
        {
            "buffer" : 0,
            "byteLength" : 63184,
            "byteOffset" : 339392
        },
        {
            "buffer" : 0,
            "byteLength" : 16878,
            "byteOffset" : 402576
        },
        {
            "buffer" : 0,
            "byteLength" : 7512,
            "byteOffset" : 419456
        },
        {
            "buffer" : 0,
            "byteLength" : 7512,
            "byteOffset" : 426968
        },
        {
            "buffer" : 0,
            "byteLength" : 5008,
            "byteOffset" : 434480
        },
        {
            "buffer" : 0,
            "byteLength" : 10016,
            "byteOffset" : 439488
        },
        {
            "buffer" : 0,
            "byteLength" : 2196,
            "byteOffset" : 449504
        },
        {
            "buffer" : 0,
            "byteLength" : 912,
            "byteOffset" : 451700
        },
        {
            "buffer" : 0,
            "byteLength" : 912,
            "byteOffset" : 452612
        },
        {
            "buffer" : 0,
            "byteLength" : 608,
            "byteOffset" : 453524
        },
        {
            "buffer" : 0,
            "byteLength" : 1216,
            "byteOffset" : 454132
        },
        {
            "buffer" : 0,
            "byteLength" : 396,
            "byteOffset" : 455348
        },
        {
            "buffer" : 0,
            "byteLength" : 348,
            "byteOffset" : 455744
        },
        {
            "buffer" : 0,
            "byteLength" : 348,
            "byteOffset" : 456092
        },
        {
            "buffer" : 0,
            "byteLength" : 232,
            "byteOffset" : 456440
        },
        {
            "buffer" : 0,
            "byteLength" : 464,
            "byteOffset" : 456672
        },
        {
            "buffer" : 0,
            "byteLength" : 162,
            "byteOffset" : 457136
        }
    ],
    "buffers" : [
        {
            "byteLength" : 457300,
            "uri" : "Spasskay_Tower.bin"
        }
    ]
}
